<?xml version="1.0" encoding="iso-8859-1"?>
<!-- Generator: Adobe Illustrator 19.0.0, SVG Export Plug-In . SVG Version: 6.00 Build 0)  -->
<svg version="1.1" id="Capa_1" xmlns="http://www.w3.org/2000/svg" xmlns:xlink="http://www.w3.org/1999/xlink" x="0px" y="0px"
	 viewBox="0 0 496 496" style="enable-background:new 0 0 496 496;" xml:space="preserve">
<g>
	<g>
		<g>
			<path d="M280,272v-16h-16v16h-48v-32h-16v32h-16v-16h-16v16H80V56c0-4.416,3.584-8,8-8h88c4.416,0,8,3.584,8,8v27.688
				c-32.416,10.224-56,40.56-56,76.312v1.472c-9.288,3.312-16,12.112-16,22.528c0,13.232,10.768,24,24,24v16h16v-16h16v32h16v-32h16
				v16h16v-16h16v16h16v-16h16v32h16v-32c13.232,0,24-10.768,24-24c0-10.416-6.712-19.216-16-22.528V160
				c0-35.752-23.584-66.088-56-76.312V48c0-26.472-21.528-48-48-48H80C53.528,0,32,21.528,32,48v224H0v136c0,48.52,39.48,88,88,88
				h320c48.52,0,88-39.48,88-88V272H280z M272,160h-16v16h24c4.416,0,8,3.584,8,8s-3.584,8-8,8H136c-4.416,0-8-3.584-8-8
				s3.584-8,8-8h104v-16h-96c0-35.288,28.712-64,64-64C243.288,96,272,124.712,272,160z M48,48c0-17.648,14.352-32,32-32h104
				c17.648,0,32,14.352,32,32v32.408c-2.632-0.264-5.296-0.408-8-0.408s-5.368,0.144-8,0.408V56c0-13.232-10.768-24-24-24H88
				c-13.232,0-24,10.768-24,24v216H48V48z M480,336h-16v16h16v56c0,39.704-32.296,72-72,72H88c-39.704,0-72-32.296-72-72v-56h432
				v-16H16v-48h464V336z"/>
			<rect x="136" y="240" width="16" height="16"/>
			<rect x="232" y="240" width="16" height="16"/>
		</g>
	</g>
</g>
<g>
</g>
<g>
</g>
<g>
</g>
<g>
</g>
<g>
</g>
<g>
</g>
<g>
</g>
<g>
</g>
<g>
</g>
<g>
</g>
<g>
</g>
<g>
</g>
<g>
</g>
<g>
</g>
<g>
</g>
</svg>
