<svg id="Слой_1" data-name="Слой 1" xmlns="http://www.w3.org/2000/svg" viewBox="0 0 312.4 105.44"><defs><style>.cls-1{fill:#fff;}.cls-1,.cls-2{stroke:#201600;stroke-miterlimit:10;}.cls-2{fill:none;}</style></defs><title>1</title><polygon class="cls-1" points="0.5 40.04 0.5 40.49 0.5 70.42 0.5 103.98 0.5 40.04"/><path class="cls-2" d="M42.58,106.94h-17V77.64H48.69c7.21,1.92,8.6,15,6.21,22l-.55,1.63a8.3,8.3,0,0,1-7.86,5.64Z" transform="translate(-25.06 -37.15)"/><line class="cls-2" x1="27.38" y1="103.98" x2="0.5" y2="69.78"/><ellipse class="cls-2" cx="58.28" cy="72.01" rx="18.9" ry="31.97"/><ellipse class="cls-2" cx="251.96" cy="72.01" rx="18.9" ry="31.97"/><polyline class="cls-2" points="83.3 40.49 105.98 103.98 129.56 40.49"/><polyline class="cls-2" points="131.99 103.98 154.67 40.49 178.25 103.98"/><polyline class="cls-2" points="241 0.17 203.36 101.53 167.16 0.17"/><polyline class="cls-2" points="311.9 40.49 289.58 40.49 289.58 72.01 311.9 72.01 311.9 101.53 289.58 101.53"/></svg>