<svg id="Слой_1" data-name="Слой 1" xmlns="http://www.w3.org/2000/svg" viewBox="0 0 354.07 171.35"><defs><style>.cls-1{fill:#fff;}.cls-1,.cls-2{stroke:#201600;stroke-miterlimit:10;}.cls-2{fill:none;}</style></defs><title>11</title><polygon class="cls-1" points="0.63 62.08 0.63 62.53 0.63 92.46 0.63 126.02 0.63 62.08"/><path class="cls-2" d="M42.58,106.94h-17V77.64H48.69c7.21,1.92,8.6,15,6.21,22l-.55,1.63a8.3,8.3,0,0,1-7.86,5.64Z" transform="translate(-24.93 -15.11)"/><line class="cls-2" x1="27.51" y1="126.02" x2="0.63" y2="91.82"/><ellipse class="cls-2" cx="58.41" cy="94.05" rx="18.9" ry="31.97"/><ellipse class="cls-2" cx="293.46" cy="94.05" rx="18.9" ry="31.97"/><polyline class="cls-2" points="83.42 62.53 106.11 126.02 129.69 62.53"/><polyline class="cls-2" points="132.12 126.02 154.8 62.53 178.38 126.02"/><path class="cls-2" d="M378.33,77.64H367.59A11.59,11.59,0,0,0,356,89.22v11.34a8.61,8.61,0,0,0,8.61,8.6h4.16a9.55,9.55,0,0,1,9.55,9.56v11.22a8.74,8.74,0,0,1-8.74,8.74H356" transform="translate(-24.93 -15.11)"/><path class="cls-2" d="M221.18,79l.1-63.36c36.36.06,66.24,28.64,66.24,63.36s-29.95,69.55-66.34,69.55Z" transform="translate(-24.93 -15.11)"/><line class="cls-2" x1="144.33" y1="91.82" x2="165.68" y2="91.82"/><path class="cls-2" d="M27.31,156.26l-1.75-7.74H378.33l-2.15,7.22A42.3,42.3,0,0,1,335.64,186H64.44A38.05,38.05,0,0,1,27.31,156.26Z" transform="translate(-24.93 -15.11)"/></svg>