<svg id="Слой_1" data-name="Слой 1" xmlns="http://www.w3.org/2000/svg" viewBox="0 0 312.4 104.83"><defs><style>.cls-1{fill:#fff;}.cls-1,.cls-2{stroke:#201600;stroke-miterlimit:10;}.cls-2{fill:none;}</style></defs><title>5</title><polygon class="cls-1" points="0.5 39.43 0.5 39.88 0.5 69.81 0.5 103.37 0.5 39.43"/><path class="cls-2" d="M42.58,106.94h-17V77.64H48.69c7.21,1.92,8.6,15,6.21,22l-.55,1.63a8.3,8.3,0,0,1-7.86,5.64Z" transform="translate(-25.06 -37.77)"/><line class="cls-2" x1="27.38" y1="103.37" x2="0.5" y2="69.17"/><ellipse class="cls-2" cx="58.28" cy="71.4" rx="18.9" ry="31.97"/><ellipse class="cls-2" cx="251.96" cy="71.4" rx="18.9" ry="31.97"/><polyline class="cls-2" points="83.3 39.88 105.98 103.37 129.56 39.88"/><polyline class="cls-2" points="131.99 103.37 154.67 39.88 178.25 103.37"/><polygon class="cls-2" points="252.45 102.81 214.81 1.46 178.61 102.81 252.45 102.81"/><path class="cls-2" d="M337,77.64H326.22a11.58,11.58,0,0,0-11.58,11.58v11.34a8.6,8.6,0,0,0,8.61,8.6h4.15a9.56,9.56,0,0,1,9.56,9.56v11.22a8.74,8.74,0,0,1-8.74,8.74H314.64" transform="translate(-25.06 -37.77)"/><line class="cls-2" x1="143.33" y1="71.62" x2="166.46" y2="71.62"/></svg>