<svg id="Слой_1" data-name="Слой 1" xmlns="http://www.w3.org/2000/svg" viewBox="0 0 192.43 104.83"><defs><style>.cls-1{fill:#fff;}.cls-1,.cls-2{stroke:#201600;stroke-miterlimit:10;}.cls-2{fill:none;}</style></defs><title>6</title><polygon class="cls-1" points="0.5 39.43 0.5 39.88 0.5 69.81 0.5 103.37 0.5 39.43"/><path class="cls-2" d="M102.74,106.94h-17V77.64h23.13c7.21,1.92,8.59,15,6.21,22l-.56,1.63a8.29,8.29,0,0,1-7.85,5.64Z" transform="translate(-85.22 -37.77)"/><line class="cls-2" x1="27.38" y1="103.37" x2="0.5" y2="69.17"/><ellipse class="cls-2" cx="47.92" cy="71.4" rx="18.9" ry="31.97"/><ellipse class="cls-2" cx="151.77" cy="71.4" rx="18.9" ry="31.97"/><polyline class="cls-2" points="41.7 39.88 64.38 103.37 87.96 39.88"/><polyline class="cls-2" points="69.4 103.37 92.08 39.88 115.66 103.37"/><polygon class="cls-2" points="156.86 102.81 119.22 1.46 83.01 102.81 156.86 102.81"/><path class="cls-2" d="M277.14,77.64H266.4a11.59,11.59,0,0,0-11.58,11.58v11.34a8.61,8.61,0,0,0,8.61,8.6h4.16a9.56,9.56,0,0,1,9.55,9.56v11.22a8.74,8.74,0,0,1-8.74,8.74H254.82" transform="translate(-85.22 -37.77)"/><line class="cls-2" x1="80.74" y1="71.62" x2="103.87" y2="71.62"/></svg>