<svg id="Слой_1" data-name="Слой 1" xmlns="http://www.w3.org/2000/svg" viewBox="0 0 186.87 104.83"><defs><style>.cls-1{fill:none;stroke:#201600;stroke-miterlimit:10;}</style></defs><title>7</title><ellipse class="cls-1" cx="41.72" cy="71.4" rx="18.9" ry="31.97"/><ellipse class="cls-1" cx="145.56" cy="71.4" rx="18.9" ry="31.97"/><polyline class="cls-1" points="35.89 40.98 58.18 103.37 81.76 39.88"/><polyline class="cls-1" points="63.2 103.37 85.88 39.88 109.46 103.37"/><polygon class="cls-1" points="150.66 102.81 113.02 1.46 76.81 102.81 150.66 102.81"/><path class="cls-1" d="M277.78,77.64H267a11.59,11.59,0,0,0-11.58,11.58v11.34a8.61,8.61,0,0,0,8.61,8.6h4.16a9.55,9.55,0,0,1,9.55,9.56v11.22a8.74,8.74,0,0,1-8.74,8.74H255.46" transform="translate(-91.42 -37.77)"/><path class="cls-1" d="M114.24,138.68H100.66a8.74,8.74,0,0,1-8.74-8.74V118.72a9.56,9.56,0,0,1,9.56-9.56h4.15a8.6,8.6,0,0,0,8.61-8.6V89.22a11.58,11.58,0,0,0-11.58-11.58H91.92v42.79" transform="translate(-91.42 -37.77)"/><line class="cls-1" x1="74.54" y1="71.62" x2="97.67" y2="71.62"/></svg>