<svg id="Слой_1" data-name="Слой 1" xmlns="http://www.w3.org/2000/svg" viewBox="0 0 393.19 120.03"><defs><style>.cls-1{fill:#fff;}.cls-1,.cls-2{stroke:#201600;stroke-miterlimit:10;}.cls-2{fill:none;}</style></defs><title>8</title><polygon class="cls-1" points="0.5 54.39 0.5 54.84 0.5 84.77 0.5 118.33 0.5 54.39"/><path class="cls-2" d="M42.58,106.94h-17V77.64H48.69c7.21,1.92,8.6,15,6.21,22l-.55,1.63a8.3,8.3,0,0,1-7.86,5.64Z" transform="translate(-25.06 -22.8)"/><line class="cls-2" x1="27.38" y1="118.33" x2="0.5" y2="84.14"/><ellipse class="cls-2" cx="58.28" cy="86.36" rx="18.9" ry="31.97"/><ellipse class="cls-2" cx="332.76" cy="86.36" rx="18.9" ry="31.97"/><polyline class="cls-2" points="83.3 54.84 105.98 118.33 129.56 54.84"/><polyline class="cls-2" points="131.99 118.33 154.67 54.84 178.25 118.33"/><path class="cls-2" d="M417.75,77.64H407a11.59,11.59,0,0,0-11.58,11.58v11.34a8.61,8.61,0,0,0,8.61,8.6h4.16a9.56,9.56,0,0,1,9.55,9.56v11.22a8.74,8.74,0,0,1-8.74,8.74H395.43" transform="translate(-25.06 -22.8)"/><path class="cls-2" d="M271.11,142.33l-63.36-.1C207.81,105.88,236.39,76,271.11,76s63.36,30,63.36,66.34Z" transform="translate(-25.06 -22.8)"/><line class="cls-2" x1="144.21" y1="84.14" x2="165.55" y2="84.14"/><line class="cls-2" x1="246.05" y1="45.6" x2="246.05"/><line class="cls-2" x1="215.54" y1="49.44" x2="197.3" y2="18.24"/><line class="cls-2" x1="192.02" y1="65.28" x2="175.22" y2="50.4"/><line class="cls-2" x1="274.94" y1="50.3" x2="293.18" y2="19.1"/><line class="cls-2" x1="298.46" y1="66.14" x2="315.26" y2="51.26"/></svg>