<svg id="Слой_1" data-name="Слой 1" xmlns="http://www.w3.org/2000/svg" viewBox="0 0 397.38 122.76"><defs><style>.cls-1{fill:#fff;}.cls-1,.cls-2{stroke:#201600;stroke-miterlimit:10;}.cls-2{fill:none;}</style></defs><title>9</title><polygon class="cls-1" points="4.68 58.32 4.68 58.77 4.68 88.7 4.68 122.26 4.68 58.32"/><path class="cls-2" d="M42.58,106.94h-17V77.64H48.69c7.21,1.92,8.6,15,6.21,22l-.55,1.63a8.3,8.3,0,0,1-7.86,5.64Z" transform="translate(-20.88 -22.8)"/><line class="cls-2" x1="31.56" y1="118.33" x2="4.68" y2="84.14"/><ellipse class="cls-2" cx="62.46" cy="86.36" rx="18.9" ry="31.97"/><ellipse class="cls-2" cx="336.94" cy="86.36" rx="18.9" ry="31.97"/><polyline class="cls-2" points="87.48 54.84 110.16 118.33 133.74 54.84"/><polyline class="cls-2" points="136.17 118.33 158.85 54.84 182.43 118.33"/><path class="cls-2" d="M417.75,80.52V77.64H407a11.59,11.59,0,0,0-11.58,11.58v11.34a8.61,8.61,0,0,0,8.61,8.6h4.16a9.56,9.56,0,0,1,9.55,9.56v17.6a8.74,8.74,0,0,1-8.74,8.74H20.88" transform="translate(-20.88 -22.8)"/><path class="cls-2" d="M271.77,140.6l-63.36-.1c.06-36.36,28.64-66.24,63.36-66.24s63.36,29.94,63.36,66.34Z" transform="translate(-20.88 -22.8)"/><line class="cls-2" x1="148.39" y1="84.14" x2="169.73" y2="84.14"/><line class="cls-2" x1="250.23" y1="45.6" x2="250.23"/><line class="cls-2" x1="219.72" y1="49.44" x2="201.48" y2="18.24"/><line class="cls-2" x1="196.2" y1="65.28" x2="179.4" y2="50.4"/><line class="cls-2" x1="279.12" y1="50.3" x2="297.36" y2="19.1"/><line class="cls-2" x1="302.64" y1="66.14" x2="319.44" y2="51.26"/><line class="cls-2" x1="4.68" y1="54.84" y2="54.84"/><line class="cls-2" x1="0.5" y1="54.86" x2="0.5" y2="122.26"/></svg>