<?xml version="1.0" ?><svg height="48" id="svg6485" version="1.1" viewBox="0 0 48 48" width="48" xmlns="http://www.w3.org/2000/svg" xmlns:cc="http://creativecommons.org/ns#" xmlns:dc="http://purl.org/dc/elements/1.1/" xmlns:inkscape="http://www.inkscape.org/namespaces/inkscape" xmlns:rdf="http://www.w3.org/1999/02/22-rdf-syntax-ns#" xmlns:sodipodi="http://sodipodi.sourceforge.net/DTD/sodipodi-0.dtd" xmlns:svg="http://www.w3.org/2000/svg">
    <defs id="defs6487" />
    <g id="layer1" transform="translate(0,-1004.3622)"><text id="text4366" style="font-style:normal;font-weight:normal;font-size:11.25px;line-height:125%;font-family:Sans;letter-spacing:0px;word-spacing:0px;fill:#000000;fill-opacity:1;stroke:none;stroke-width:1px;stroke-linecap:butt;stroke-linejoin:miter;stroke-opacity:1" x="12" xml:space="preserve" y="1036.3622">
            <tspan id="tspan4368" x="12" y="1036.3622" /></text>
        <g id="text4981" style="font-style:normal;font-variant:normal;font-weight:normal;font-stretch:normal;font-size:12.37186241px;line-height:125%;font-family:'Roboto Condensed';-inkscape-font-specification:'Roboto Condensed, ';letter-spacing:0px;word-spacing:0px;fill:#000000;fill-opacity:1;stroke:none;stroke-width:1px;stroke-linecap:butt;stroke-linejoin:miter;stroke-opacity:1" transform="scale(1.1477838,0.87124422)" />
        <g id="g6788">
            <g id="g5989" transform="translate(534.02794,206.17156)">
                <path d="m -510.02794,802.44059 c -10.90519,0 -19.75,8.84505 -19.75,19.75005 0,10.90515 8.84481,19.75005 19.75,19.75005 10.90519,0 19.75,-8.8449 19.75,-19.75005 0,-10.905 -8.84481,-19.75005 -19.75,-19.75005 z" id="path5779" style="fill:#ff9602;font-style:normal;font-variant:normal;font-weight:normal;font-stretch:normal;font-size:medium;line-height:normal;font-family:sans-serif;text-indent:0;text-align:start;text-decoration:none;text-decoration-line:none;text-decoration-style:solid;text-decoration-color:#000000;letter-spacing:normal;word-spacing:normal;text-transform:none;direction:ltr;block-progression:tb;writing-mode:lr-tb;baseline-shift:baseline;text-anchor:start;white-space:normal;clip-rule:nonzero;display:inline;overflow:visible;visibility:visible;opacity:1;isolation:auto;mix-blend-mode:normal;color-interpolation:sRGB;color-interpolation-filters:linearRGB;solid-color:#000000;solid-opacity:1;fill:#6c9814;fill-opacity:1;fill-rule:nonzero;stroke:none;stroke-width:0.99999994;stroke-linecap:round;stroke-linejoin:round;stroke-miterlimit:4;stroke-dasharray:none;stroke-dashoffset:0;stroke-opacity:1;color-rendering:auto;image-rendering:auto;shape-rendering:auto;text-rendering:auto;enable-background:accumulate" />
                <path d="m -510.02794,802.44059 c -10.90519,0 -19.75,8.84505 -19.75,19.75005 0,5.4579 2.21752,10.39755 5.798,13.9728 l 27.92477,-27.92475 c -3.57517,-3.5805 -8.51487,-5.7981 -13.97277,-5.7981 z" id="path5781" style="color:#000000;clip-rule:nonzero;display:inline;overflow:visible;visibility:visible;opacity:1;isolation:auto;mix-blend-mode:normal;color-interpolation:sRGB;color-interpolation-filters:linearRGB;solid-color:#000000;solid-opacity:1;fill:#527212;fill-opacity:1;fill-rule:nonzero;stroke:none;stroke-width:1.5;stroke-linecap:butt;stroke-linejoin:miter;stroke-miterlimit:4;stroke-dasharray:none;stroke-dashoffset:0;stroke-opacity:1;color-rendering:auto;image-rendering:auto;shape-rendering:auto;text-rendering:auto;enable-background:accumulate" />
            </g>
            <g id="g4848" transform="matrix(0.89999645,0,0,0.89523614,1.2001383,107.20189)">
                <path d="m 13.5,1014.9207 c -2.341282,0 -4.5,1.8685 -4.5,4.25 l 0,0.2559 0,18.9863 c -0.00115,0.053 0.0061,0.1056 0.021484,0.1562 C 9.0205331,1038.6061 9,1038.6351 9,1038.6707 c 0,2.3413 1.908718,4.25 4.25,4.25 0.04216,1e-4 0.08416,-0.01 0.125,-0.016 0.04084,0.01 0.08284,0.016 0.125,0.016 l 18,0 c 0.276131,0 0.499972,-0.2239 0.5,-0.5 l 0,-22 c -2.8e-5,-0.2761 -0.223869,-0.5 -0.5,-0.5 l -17.5,0 0,-4.5 c -2.8e-5,-0.2761 -0.223869,-0.5 -0.5,-0.5 z m 20,0 c -0.276131,0 -0.499972,0.2239 -0.5,0.5 l 0,27 c 2.8e-5,0.2761 0.223869,0.5 0.5,0.5 l 5,0 c 0.276131,0 0.499972,-0.2239 0.5,-0.5 l 0,-27 c -2.8e-5,-0.2761 -0.223869,-0.5 -0.5,-0.5 z m 0.5,1 4,0 0,2 -2,0 0,1 2,0 0,2 -3,0 0,1 3,0 0,2 -2,0 0,1 2,0 0,2 -3,0 0,1 3,0 0,2 -2,0 0,1 2,0 0,2 -3,0 0,1 3,0 0,2 -2,0 0,1 2,0 0,2 -3,0 0,1 3,0 0,2 -4,0 z m -21,0.2012 0,4.2168 c -0.009,0.054 -0.009,0.1097 0,0.164 l 0,14.0157 c -1.196609,0.1396 -2.257764,0.7346 -3,1.6386 l 0,-16.7285 0,-0.2558 c 0,-1.5791 1.418819,-2.787 3,-3.0508 z m 1,4.7988 17,0 0,21 -17.5,0 c -0.04208,-7e-4 -0.08408,0 -0.125,0.014 -0.04092,-0.01 -0.08292,-0.014 -0.125,-0.014 -1.800852,0 -3.25,-1.4491 -3.25,-3.25 0,-1.7606 1.699148,-3.25 3.5,-3.25 0.276131,0 0.499972,-0.2239 0.5,-0.5 z m 9.998047,3.9961 -2.912109,0.012 c -0.03854,-0.01 -0.07788,-0.011 -0.117188,-0.01 -0.105254,0.01 -0.205745,0.046 -0.287109,0.1133 -0.0046,0 -0.0092,0.01 -0.01367,0.012 -0.0046,0 -0.0092,0.01 -0.01367,0.012 -0.0054,0.01 -0.01058,0.013 -0.01563,0.02 l -0.0098,0.01 c -0.0081,0.01 -0.01592,0.017 -0.02344,0.025 l -4.453125,4.9453 c -0.02759,0.028 -0.05185,0.058 -0.07227,0.092 -0.0034,0.01 -0.0066,0.012 -0.0098,0.018 -0.04598,0.077 -0.07027,0.1658 -0.07024,0.2559 l 0,7 c 2.8e-5,0.2761 0.223869,0.5 0.5,0.5 l 3,0 c 0.276131,0 0.499972,-0.2239 0.5,-0.5 l 0,-3.5 2,0 0,3.5 c 2.8e-5,0.2761 0.223869,0.5 0.5,0.5 l 3,0 3,0 c 0.276131,0 0.499972,-0.2239 0.5,-0.5 l 0,-6.9121 c 0.02601,-0.1543 -0.02169,-0.3118 -0.128906,-0.4258 l -4.5,-5 c -0.09506,-0.1059 -0.23074,-0.1663 -0.373047,-0.166 z m -0.21875,0.998 0,0 3.601562,4.002 -1.658203,0 -3.597656,-3.9961 z M 21,1026.1687 l 3.376953,3.752 -6.753906,0 z m -4,4.752 8,0 0,6 -2,0 0,-3.5 c -2.8e-5,-0.2761 -0.223869,-0.5 -0.5,-0.5 l -3,0 c -0.276131,0 -0.499972,0.2239 -0.5,0.5 l 0,3.5 -2,0 z m 9,0 2,0 0,6 -2,0 z" id="rect6211" style="color:#000000;font-style:normal;font-variant:normal;font-weight:normal;font-stretch:normal;font-size:medium;line-height:normal;font-family:sans-serif;text-indent:0;text-align:start;text-decoration:none;text-decoration-line:none;text-decoration-style:solid;text-decoration-color:#000000;letter-spacing:normal;word-spacing:normal;text-transform:none;direction:ltr;block-progression:tb;writing-mode:lr-tb;baseline-shift:baseline;text-anchor:start;white-space:normal;clip-rule:nonzero;display:inline;overflow:visible;visibility:visible;opacity:1;isolation:auto;mix-blend-mode:normal;color-interpolation:sRGB;color-interpolation-filters:linearRGB;solid-color:#000000;solid-opacity:1;fill:#ffffff;fill-opacity:1;fill-rule:nonzero;stroke:none;stroke-width:0.99999994;stroke-linecap:round;stroke-linejoin:round;stroke-miterlimit:4;stroke-dasharray:none;stroke-dashoffset:0;stroke-opacity:1;color-rendering:auto;image-rendering:auto;shape-rendering:auto;text-rendering:auto;enable-background:accumulate" />
            </g>
        </g>
    </g>
</svg>
