<svg width="104" height="104" viewBox="0 0 104 104" fill="none" xmlns="http://www.w3.org/2000/svg">
<path d="M99.6667 56.2433H4.33333C1.94132 56.2433 0 54.302 0 51.91C0 49.518 1.94132 47.5767 4.33333 47.5767H99.6667C102.059 47.5767 104 49.518 104 51.91C104 54.302 102.059 56.2433 99.6667 56.2433Z" fill="#0B172A"/>
<path d="M99.6667 23.0209H4.33333C1.94132 23.0209 0 21.0796 0 18.6876C0 16.2956 1.94132 14.3542 4.33333 14.3542H99.6667C102.059 14.3542 104 16.2956 104 18.6876C104 21.0796 102.059 23.0209 99.6667 23.0209Z" fill="#0B172A"/>
<path d="M99.6667 89.465H4.33333C1.94132 89.465 0 87.5237 0 85.1317C0 82.7397 1.94132 80.7983 4.33333 80.7983H99.6667C102.059 80.7983 104 82.7397 104 85.1317C104 87.5237 102.059 89.465 99.6667 89.465Z" fill="#0B172A"/>
</svg>
