<svg width="60" height="60" viewBox="0 0 60 60" fill="none" xmlns="http://www.w3.org/2000/svg">
<path d="M55 0H5.00004C2.19996 0 0 2.19996 0 5.00004V55.0001C0 57.8 2.19996 60 5.00004 60H28.0001H40.0001H55.0001C57.8 60 60 57.8 60 55V5.00004C60 2.19996 57.8 0 55 0ZM30 58V38H22V30H30V23C30 17.3 34.4 12.5 40 12H49V20H40.9999C39.2999 20 37.9999 21.3 37.9999 23V30H48V38H38V58.0001H30V58ZM58 55C58 56.7 56.7 58 55 58H40V40H49.9999V28H40V22.9999C40 22.3999 40.3999 22 40.9999 22H51V9.99996H39.9C33.2 10.6 28 16.3 28 22.9999V28H19.9999V40H28V58H5.00004C3.3 58 2.00004 56.7 2.00004 55V5.00004C2.00004 3.3 3.3 2.00004 5.00004 2.00004H55.0001C56.7001 2.00004 58.0001 3.3 58.0001 5.00004V55H58Z" fill="#0B172A"/>
</svg>
