<svg width="60" height="60" viewBox="0 0 60 60" fill="none" xmlns="http://www.w3.org/2000/svg">
<path d="M49.7272 0H10.2728C4.6084 0 0 4.6084 0 10.2728V49.7272C0 55.3916 4.6084 60 10.2728 60H49.7272C55.3916 60 60 55.3916 60 49.7272V10.2728C60 4.6084 55.3916 0 49.7272 0ZM58.2422 49.7272C58.2422 54.4223 54.4223 58.2422 49.7272 58.2422H10.2728C5.57766 58.2422 1.75781 54.4223 1.75781 49.7272V10.2728C1.75781 5.57766 5.57766 1.75781 10.2728 1.75781H49.7272C54.4223 1.75781 58.2422 5.57766 58.2422 10.2728V49.7272Z" fill="#0B172A"/>
<path d="M30 13.1516C20.7097 13.1516 13.1515 20.7099 13.1515 30.0001C13.1515 39.2904 20.7097 46.8486 30 46.8486C39.2903 46.8486 46.8485 39.2904 46.8485 30.0001C46.8485 20.7099 39.2903 13.1516 30 13.1516ZM30 45.0908C21.679 45.0908 14.9093 38.3211 14.9093 30.0001C14.9093 21.6791 21.679 14.9094 30 14.9094C38.321 14.9094 45.0907 21.6791 45.0907 30.0001C45.0907 38.3211 38.321 45.0908 30 45.0908Z" fill="#0B172A"/>
<path d="M47.8484 7.51538C45.2919 7.51538 43.2119 9.59534 43.2119 12.1518C43.2119 14.7084 45.2919 16.7883 47.8484 16.7883C50.405 16.7883 52.4848 14.7084 52.4848 12.1518C52.4848 9.59523 50.405 7.51538 47.8484 7.51538ZM47.8484 15.0305C46.2611 15.0305 44.9697 13.7391 44.9697 12.1518C44.9697 10.5645 46.2611 9.27319 47.8484 9.27319C49.4357 9.27319 50.727 10.5646 50.727 12.1518C50.727 13.739 49.4357 15.0305 47.8484 15.0305Z" fill="#0B172A"/>
<path d="M22.6504 22.6503C26.2481 19.0526 31.8679 18.5839 36.0131 21.5357C36.4083 21.8172 36.9573 21.7251 37.2389 21.3296C37.5205 20.9342 37.4281 20.3854 37.0327 20.1038C34.7192 18.4564 31.8796 17.6709 29.0377 17.8918C26.1606 18.1154 23.4508 19.3639 21.4074 21.4074C19.364 23.4508 18.1155 26.1607 17.8918 29.0376C17.6709 31.8798 18.4565 34.7191 20.1038 37.0326C20.2753 37.2734 20.5457 37.4018 20.8205 37.4018C20.9969 37.4018 21.175 37.3488 21.3296 37.2388C21.725 36.9572 21.8173 36.4084 21.5357 36.013C18.584 31.8677 19.0528 26.248 22.6504 22.6503Z" fill="#0B172A"/>
<path d="M38.6701 22.761C38.2747 23.0426 38.1824 23.5913 38.464 23.9867C41.4158 28.1319 40.947 33.7517 37.3494 37.3494C33.7517 40.9469 28.132 41.4158 23.9867 38.464C23.5912 38.1825 23.0426 38.2746 22.761 38.6701C22.4793 39.0655 22.5717 39.6143 22.9671 39.8959C25.0247 41.3611 27.498 42.1445 30.0197 42.1445C30.3331 42.1445 30.6478 42.1323 30.9621 42.1079C33.8391 41.8842 36.549 40.6358 38.5923 38.5923C40.6357 36.5489 41.8842 33.839 42.1079 30.962C42.3288 28.1198 41.5433 25.2805 39.8959 22.967C39.6143 22.5717 39.0656 22.4794 38.6701 22.761Z" fill="#0B172A"/>
</svg>
