<svg width="22" height="22" viewBox="0 0 22 22" fill="none" xmlns="http://www.w3.org/2000/svg">
<path d="M18.2333 0H3.76668C1.68975 0 0 1.68975 0 3.76668V18.2333C0 20.3103 1.68975 22 3.76668 22H18.2333C20.3103 22 22 20.3103 22 18.2333V3.76668C22 1.68975 20.3103 0 18.2333 0ZM21.3555 18.2333C21.3555 19.9549 19.9549 21.3555 18.2333 21.3555H3.76668C2.04514 21.3555 0.644531 19.9549 0.644531 18.2333V3.76668C0.644531 2.04514 2.04514 0.644531 3.76668 0.644531H18.2333C19.9549 0.644531 21.3555 2.04514 21.3555 3.76668V18.2333Z" fill="#FBFBFB"/>
<path d="M11.0001 4.82227C7.59362 4.82227 4.82227 7.59362 4.82227 11.0001C4.82227 14.4065 7.59362 17.1778 11.0001 17.1778C14.4065 17.1778 17.1778 14.4065 17.1778 11.0001C17.1778 7.59362 14.4065 4.82227 11.0001 4.82227ZM11.0001 16.5333C7.94901 16.5333 5.4668 14.0511 5.4668 11.0001C5.4668 7.94902 7.94901 5.4668 11.0001 5.4668C14.0511 5.4668 16.5333 7.94902 16.5333 11.0001C16.5333 14.0511 14.0511 16.5333 11.0001 16.5333Z" fill="#FBFBFB"/>
<path d="M17.5444 2.75562C16.607 2.75562 15.8444 3.51827 15.8444 4.45563C15.8444 5.39304 16.607 6.15569 17.5444 6.15569C18.4818 6.15569 19.2444 5.39304 19.2444 4.45563C19.2444 3.51823 18.4818 2.75562 17.5444 2.75562ZM17.5444 5.51116C16.9624 5.51116 16.4889 5.03764 16.4889 4.45563C16.4889 3.87362 16.9624 3.40015 17.5444 3.40015C18.1264 3.40015 18.5999 3.87366 18.5999 4.45563C18.5999 5.0376 18.1264 5.51116 17.5444 5.51116Z" fill="#FBFBFB"/>
<path d="M8.30523 8.30507C9.62437 6.98593 11.685 6.81405 13.2049 7.89639C13.3498 7.9996 13.5511 7.96583 13.6543 7.82081C13.7576 7.67584 13.7237 7.47461 13.5787 7.37136C12.7305 6.7673 11.6893 6.47928 10.6472 6.56028C9.59232 6.64226 8.59871 7.10005 7.84946 7.84934C7.10022 8.59859 6.64243 9.5922 6.5604 10.6471C6.4794 11.6892 6.76747 12.7303 7.37148 13.5786C7.43434 13.6669 7.53351 13.7139 7.63428 13.7139C7.69894 13.7139 7.76426 13.6945 7.82093 13.6542C7.96591 13.5509 7.99977 13.3497 7.89651 13.2047C6.81422 11.6848 6.98609 9.62421 8.30523 8.30507Z" fill="#FBFBFB"/>
<path d="M14.179 8.34568C14.034 8.44893 14.0002 8.65015 14.1034 8.79513C15.1858 10.315 15.0139 12.3756 13.6948 13.6948C12.3756 15.0139 10.3151 15.1858 8.79513 14.1034C8.65011 14.0002 8.44893 14.034 8.34567 14.179C8.24242 14.324 8.27628 14.5252 8.42126 14.6285C9.1757 15.1657 10.0826 15.453 11.0072 15.453C11.1221 15.453 11.2375 15.4485 11.3528 15.4396C12.4077 15.3575 13.4013 14.8998 14.1505 14.1505C14.8997 13.4013 15.3575 12.4076 15.4396 11.3527C15.5206 10.3106 15.2325 9.2695 14.6285 8.42121C14.5252 8.27628 14.324 8.24242 14.179 8.34568Z" fill="#FBFBFB"/>
</svg>
