<svg width="36" height="36" viewBox="0 0 36 36" fill="none" xmlns="http://www.w3.org/2000/svg">
<path d="M17.975 0C10.6999 0 4.78125 5.91861 4.78125 13.1938C4.78125 16.5358 6.88705 21.2577 11.0404 27.2285C14.0762 31.5931 17.062 34.9706 17.1878 35.1123L17.975 36L18.7625 35.1123C18.888 34.9706 21.8738 31.5931 24.9099 27.2285C29.063 21.2577 31.169 16.5358 31.169 13.1938C31.169 5.91861 25.2502 0 17.975 0ZM23.1935 26.0096C21.1415 28.9616 19.0676 31.5022 17.975 32.7983C16.8852 31.5058 14.8189 28.9748 12.7683 26.0266C8.92007 20.4944 6.88596 16.0568 6.88596 13.1938C6.88596 7.07932 11.8606 2.10471 17.975 2.10471C24.0897 2.10471 29.0641 7.07932 29.0641 13.1938C29.0641 16.0538 27.0341 20.4854 23.1935 26.0096Z" fill="#E6E6E6"/>
<path d="M17.9749 4.87622C13.6812 4.87622 10.1881 8.36932 10.1881 12.6631C10.1881 16.9568 13.6812 20.4502 17.9749 20.4502C22.269 20.4502 25.7621 16.9568 25.7621 12.6631C25.7621 8.36932 22.269 4.87622 17.9749 4.87622ZM17.9749 18.3455C14.8419 18.3455 12.2928 15.7964 12.2928 12.6631C12.2928 9.53003 14.8419 6.98093 17.9749 6.98093C21.1082 6.98093 23.6573 9.53003 23.6573 12.6631C23.6573 15.7964 21.1082 18.3455 17.9749 18.3455Z" fill="#E6E6E6"/>
</svg>
