<svg width="33" height="33" viewBox="0 0 33 33" fill="none" xmlns="http://www.w3.org/2000/svg">
<g clip-path="url(#clip0)">
<path d="M26.0805 20.4422C25.4049 19.7388 24.59 19.3627 23.7263 19.3627C22.8696 19.3627 22.0478 19.7318 21.3443 20.4353L19.1434 22.6292C18.9623 22.5317 18.7813 22.4411 18.6071 22.3506C18.3564 22.2252 18.1196 22.1068 17.9176 21.9815C15.856 20.6721 13.9825 18.9657 12.1855 16.7578C11.3149 15.6574 10.7299 14.731 10.305 13.7908C10.8761 13.2684 11.4055 12.7251 11.9209 12.2028C12.1159 12.0078 12.3109 11.8058 12.5059 11.6108C13.9685 10.1481 13.9685 8.25369 12.5059 6.79107L10.6045 4.88966C10.3886 4.67375 10.1657 4.45087 9.95676 4.228C9.53887 3.79617 9.10008 3.35042 8.64736 2.93253C7.97177 2.2639 7.16385 1.90869 6.31413 1.90869C5.46442 1.90869 4.64256 2.2639 3.94607 2.93253C3.93911 2.93949 3.93911 2.93949 3.93214 2.94646L1.56409 5.33541C0.672581 6.22692 0.164145 7.31344 0.0527073 8.57408C-0.11445 10.6078 0.48453 12.5023 0.944211 13.742C2.07252 16.7857 3.75802 19.6064 6.27234 22.6292C9.32296 26.2718 12.9934 29.1483 17.1863 31.1751C18.7882 31.9343 20.9264 32.8327 23.3154 32.986C23.4617 32.9929 23.6149 32.9999 23.7542 32.9999C25.3631 32.9999 26.7143 32.4218 27.7729 31.2726C27.7799 31.2587 27.7938 31.2517 27.8008 31.2378C28.1629 30.799 28.5808 30.402 29.0196 29.9771C29.3191 29.6916 29.6256 29.3921 29.9251 29.0787C30.6146 28.3613 30.9768 27.5255 30.9768 26.6688C30.9768 25.8052 30.6076 24.9764 29.9042 24.2799L26.0805 20.4422ZM28.5739 27.7762C28.5669 27.7762 28.5669 27.7832 28.5739 27.7762C28.3022 28.0688 28.0237 28.3334 27.7242 28.626C27.2714 29.0578 26.8118 29.5105 26.3799 30.0189C25.6765 30.7711 24.8477 31.1264 23.7611 31.1264C23.6567 31.1264 23.5452 31.1264 23.4408 31.1194C21.3722 30.9871 19.4499 30.1791 18.0082 29.4896C14.066 27.5812 10.6045 24.8719 7.728 21.4382C5.35298 18.5756 3.76499 15.929 2.71329 13.0873C2.06556 11.3531 1.82875 10.0019 1.93322 8.72731C2.00287 7.91242 2.31629 7.23682 2.89438 6.65874L5.2694 4.28371C5.61068 3.96333 5.97285 3.78921 6.32806 3.78921C6.76685 3.78921 7.12206 4.05387 7.34493 4.27675C7.3519 4.28371 7.35886 4.29068 7.36583 4.29764C7.79069 4.69464 8.19465 5.10557 8.6195 5.54436C8.83542 5.76723 9.05829 5.99011 9.28117 6.21995L11.1826 8.12136C11.9209 8.85964 11.9209 9.5422 11.1826 10.2805C10.9806 10.4825 10.7856 10.6844 10.5836 10.8795C9.99855 11.4784 9.44136 12.0356 8.83542 12.5789C8.82149 12.5928 8.80756 12.5998 8.80059 12.6137C8.20161 13.2127 8.31305 13.7977 8.43842 14.1947C8.44538 14.2156 8.45235 14.2365 8.45931 14.2574C8.95382 15.4554 9.65031 16.5837 10.709 17.9279L10.7159 17.9349C12.6382 20.3029 14.665 22.1486 16.9007 23.5625C17.1863 23.7436 17.4788 23.8898 17.7574 24.0291C18.0082 24.1545 18.245 24.2729 18.4469 24.3983C18.4748 24.4122 18.5027 24.4331 18.5305 24.447C18.7673 24.5654 18.9902 24.6212 19.22 24.6212C19.7981 24.6212 20.1603 24.259 20.2787 24.1406L22.6607 21.7586C22.8975 21.5218 23.2736 21.2362 23.7124 21.2362C24.1442 21.2362 24.4994 21.5079 24.7153 21.7447C24.7223 21.7516 24.7223 21.7516 24.7293 21.7586L28.5669 25.5962C29.2843 26.3067 29.2843 27.038 28.5739 27.7762Z" fill="#E5E5E5"/>
<path d="M17.834 7.84986C19.6588 8.15632 21.3165 9.01996 22.6398 10.3433C23.9631 11.6666 24.8198 13.3243 25.1332 15.1491C25.2098 15.6087 25.6068 15.9291 26.0595 15.9291C26.1153 15.9291 26.164 15.9222 26.2197 15.9152C26.7351 15.8316 27.0764 15.3441 26.9928 14.8287C26.6167 12.6208 25.572 10.608 23.977 9.013C22.3821 7.41804 20.3692 6.37331 18.1614 5.99721C17.646 5.91363 17.1654 6.25491 17.0748 6.76334C16.9843 7.27178 17.3186 7.76629 17.834 7.84986Z" fill="#E5E5E5"/>
<path d="M32.9617 14.557C32.3418 10.9213 30.6285 7.61301 27.9957 4.98029C25.363 2.34757 22.0547 0.634209 18.419 0.0143347C17.9106 -0.0762086 17.43 0.272035 17.3395 0.780471C17.2559 1.29587 17.5972 1.77645 18.1126 1.86699C21.3582 2.41722 24.3183 3.95645 26.6724 6.30362C29.0265 8.65775 30.5588 11.6178 31.109 14.8635C31.1857 15.3231 31.5827 15.6435 32.0354 15.6435C32.0911 15.6435 32.1398 15.6366 32.1956 15.6296C32.704 15.553 33.0522 15.0654 32.9617 14.557Z" fill="#E5E5E5"/>
</g>
<defs>
<clipPath id="clip0">
<rect width="33" height="33" fill="white"/>
</clipPath>
</defs>
</svg>
