<svg width="60" height="54" viewBox="0 0 60 54" fill="none" xmlns="http://www.w3.org/2000/svg">
<path d="M59.6072 2.16824C59.079 1.24789 58.13 0.698535 57.0688 0.698535L2.93242 0.696777C1.67563 0.696777 0.592513 1.46233 0.173234 2.64717C-0.246163 3.832 0.114173 5.10835 1.09113 5.89899L22.6771 23.3674L26.8755 50.8169C27.0655 52.0592 27.9861 53.014 29.2206 53.2495C29.4106 53.2858 29.5996 53.3034 29.7862 53.3034C30.813 53.3032 31.7601 52.7688 32.2964 51.8504L59.5965 5.10156C60.1314 4.18519 60.1355 3.08859 59.6072 2.16824ZM30.7783 50.964C30.3916 51.6262 29.7401 51.5592 29.5496 51.523C29.3592 51.4868 28.7289 51.3094 28.6129 50.5513L24.4541 23.3608L27.2917 21.732C27.7126 21.4904 27.858 20.9532 27.6164 20.5323C27.3747 20.1114 26.8377 19.9661 26.4166 20.2076L23.5791 21.8364L2.19686 4.53263C1.60075 4.05031 1.76551 3.41647 1.8302 3.23366C1.89488 3.05086 2.16557 2.45452 2.93253 2.45452L57.0689 2.45628C57.1473 2.45628 57.2234 2.46612 57.2978 2.48065L29.7194 18.3116C29.2985 18.5532 29.1531 19.0904 29.3947 19.5114C29.5571 19.7944 29.8533 19.9528 30.1577 19.9528C30.3062 19.9528 30.4565 19.9152 30.5944 19.836L58.1727 4.0052C58.1476 4.07679 58.1179 4.14746 58.0784 4.21507L30.7783 50.964Z" fill="#0B172A"/>
</svg>
