<svg width="22" height="22" viewBox="0 0 22 22" fill="none" xmlns="http://www.w3.org/2000/svg">
<g clip-path="url(#clip0)">
<path d="M21.856 1.89501C21.6623 1.55754 21.3143 1.35611 20.9252 1.35611L1.0752 1.35547C0.614374 1.35547 0.21723 1.63617 0.0634946 2.07061C-0.0902843 2.50505 0.0418392 2.97305 0.400055 3.26294L8.31492 9.66803L9.85434 19.7328C9.92399 20.1884 10.2615 20.5385 10.7142 20.6248C10.7838 20.6381 10.8531 20.6445 10.9216 20.6445C11.2981 20.6445 11.6453 20.4485 11.842 20.1118L21.852 2.97055C22.0482 2.63455 22.0497 2.23247 21.856 1.89501ZM11.2854 19.7868C11.1436 20.0296 10.9047 20.005 10.8348 19.9918C10.765 19.9785 10.5339 19.9134 10.4914 19.6355L8.96647 9.66563L10.0069 9.06838C10.1613 8.97979 10.2146 8.78283 10.126 8.62849C10.0374 8.47415 9.84046 8.42087 9.68608 8.50943L8.64563 9.10667L0.805492 2.76195C0.586918 2.5851 0.64733 2.35269 0.671048 2.28566C0.694766 2.21863 0.794019 1.99997 1.07524 1.99997L20.9253 2.00062C20.954 2.00062 20.9819 2.00423 21.0092 2.00956L10.8971 7.81422C10.7428 7.90282 10.6894 8.09978 10.778 8.25416C10.8376 8.35793 10.9462 8.41602 11.0578 8.41602C11.1122 8.41602 11.1674 8.40222 11.2179 8.37318L21.33 2.56856C21.3208 2.59481 21.3099 2.62072 21.2954 2.64551L11.2854 19.7868Z" fill="#FBFBFB"/>
</g>
<defs>
<clipPath id="clip0">
<rect width="22" height="22" fill="white"/>
</clipPath>
</defs>
</svg>
