<?xml version="1.0" encoding="UTF-8" standalone="no"?>
<svg
   xmlns:dc="http://purl.org/dc/elements/1.1/"
   xmlns:cc="http://creativecommons.org/ns#"
   xmlns:rdf="http://www.w3.org/1999/02/22-rdf-syntax-ns#"
   xmlns:svg="http://www.w3.org/2000/svg"
   xmlns="http://www.w3.org/2000/svg"
   id="svg5088"
   version="1.1"
   viewBox="0 0 14.033961 19.762431"
   height="19.762432mm"
   width="14.033962mm">
  <defs
     id="defs5082">
    <clipPath
       id="clipPath26"
       clipPathUnits="userSpaceOnUse">
      <path
         id="path24"
         d="m 46.87,357.72 h 57.62 v -61.3 H 46.87 Z" />
    </clipPath>
    <clipPath
       id="clipPath68"
       clipPathUnits="userSpaceOnUse">
      <path
         id="path66"
         d="m 134.76,353.97 h 53.44 v -53.8 h -53.44 z" />
    </clipPath>
    <clipPath
       id="clipPath92"
       clipPathUnits="userSpaceOnUse">
      <path
         id="path90"
         d="m 223.45,354.72 h 47.18 v -55.29 h -47.18 z" />
    </clipPath>
    <clipPath
       id="clipPath340"
       clipPathUnits="userSpaceOnUse">
      <path
         id="path338"
         d="m 297.63,333.83 h 56.08 V 295.5 h -56.08 z" />
    </clipPath>
    <clipPath
       id="clipPath220"
       clipPathUnits="userSpaceOnUse">
      <path
         id="path218"
         d="M 378.05,353.71 H 427.8 V 300.43 H 378.05 Z" />
    </clipPath>
    <clipPath
       id="clipPath1224"
       clipPathUnits="userSpaceOnUse">
      <path
         id="path1222"
         d="m 450.12,353.2 h 52.25 v -52.25 h -52.25 z" />
    </clipPath>
    <clipPath
       id="clipPath904"
       clipPathUnits="userSpaceOnUse">
      <path
         id="path902"
         d="m 520.935,347.63 h 55.64 v -41.12 h -55.64 z" />
    </clipPath>
    <clipPath
       id="clipPath1512"
       clipPathUnits="userSpaceOnUse">
      <path
         id="path1510"
         d="m 590.789,353.968 h 54.478 v -53.795 h -54.478 z" />
    </clipPath>
    <clipPath
       id="clipPath384"
       clipPathUnits="userSpaceOnUse">
      <path
         id="path382"
         d="M 46.97,277.28 H 104.4 V 231.61 H 46.97 Z" />
    </clipPath>
    <clipPath
       id="clipPath312"
       clipPathUnits="userSpaceOnUse">
      <path
         id="path310"
         d="m 127.4,282.06 h 68.16 V 240.85 H 127.4 Z" />
    </clipPath>
    <clipPath
       id="clipPath544"
       clipPathUnits="userSpaceOnUse">
      <path
         id="path542"
         d="m 208.18,291.795 h 77.715 V 231.114 H 208.18 Z" />
    </clipPath>
    <clipPath
       id="clipPath144"
       clipPathUnits="userSpaceOnUse">
      <path
         id="path142"
         d="m 309.62,285.63 h 32.112 V 237.28 H 309.62 Z" />
    </clipPath>
  </defs>
  <metadata
     id="metadata5085">
    <rdf:RDF>
      <cc:Work
         rdf:about="">
        <dc:format>image/svg+xml</dc:format>
        <dc:type
           rdf:resource="http://purl.org/dc/dcmitype/StillImage" />
        <dc:title></dc:title>
      </cc:Work>
    </rdf:RDF>
  </metadata>
  <g
     transform="translate(-65.827424,-96.156982)"
     id="layer1">
    <g
       id="g7310"
       transform="matrix(0.35277777,0,0,-0.35277777,-42.046781,198.27378)">
      <g
         id="g138">
        <g
           id="g140" />
        <g
           id="g180">
          <g
             clip-path="url(#clipPath144)"
             id="g178">
            <g
               transform="translate(333.1802,265.73)"
               id="g148">
              <path
                 d="m 0,0 v -0.42 c 0,-1.49 -1.21,-2.7 -2.7,-2.7 H -5 -5.4 V 0 c 0,1.49 1.21,2.69 2.7,2.69 0.74,0 1.42,-0.3 1.91,-0.79 C -0.3,1.42 0,0.75 0,0"
                 style="fill:#ff9602;fill-opacity:1;fill-rule:nonzero;stroke:none"
                 id="path146" />
            </g>
            <g
               transform="translate(331.1401,247.4902)"
               id="g152">
              <path
                 d="m 0,0 h -0.56 c -0.41,0.28 -0.9,0.43 -1.43,0.43 h -1.37 v 14.69 h 0.4 2.3 c 1.49,0 2.7,1.21 2.7,2.7 v 0.42 c 0,0.75 -0.3,1.42 -0.79,1.9 -0.49,0.49 -1.17,0.79 -1.91,0.79 -1.49,0 -2.7,-1.2 -2.7,-2.69 v -3.12 h -4.21 v 3.12 c 0,1.49 -1.21,2.69 -2.7,2.69 -0.75,0 -1.42,-0.3 -1.91,-0.79 -0.49,-0.48 -0.79,-1.15 -0.79,-1.9 v -0.42 c 0,-1.49 1.21,-2.7 2.7,-2.7 h 2.3 0.4 V 0.43 H -8.94 C -9.47,0.43 -9.96,0.27 -10.38,0 h -0.55 l -8.76,16.01 c -1.21,2.22 -1.83,4.69 -1.83,7.18 0,0.95 0.09,1.9 0.27,2.85 1.36,7.02 7.52,12.1 14.68,12.1 h 2.21 c 3.58,0 6.91,-1.27 9.51,-3.42 2.61,-2.15 4.49,-5.17 5.17,-8.68 0.66,-3.43 0.11,-6.97 -1.56,-10.03 z"
                 style="fill:#ff9602;fill-opacity:1;fill-rule:nonzero;stroke:none"
                 id="path150" />
            </g>
            <g
               transform="translate(329.1499,247.9199)"
               id="g156">
              <path
                 d="m 0,0 c 0.53,0 1.02,-0.15 1.43,-0.43 h -2.8 V 0 Z"
                 style="fill:#fafbfc;fill-opacity:1;fill-rule:nonzero;stroke:none"
                 id="path154" />
            </g>
            <g
               transform="translate(329.1499,242.6001)"
               id="g160">
              <path
                 d="M 0,0 C 0.73,0 1.39,-0.3 1.88,-0.78 2.36,-1.26 2.66,-1.93 2.66,-2.66 2.66,-4.12 1.46,-5.32 0,-5.32 h -6.95 c -0.73,0 -1.4,0.3 -1.88,0.78 -0.48,0.48 -0.78,1.15 -0.78,1.88 0,1.46 1.2,2.66 2.66,2.66 z"
                 style="fill:#00607f;fill-opacity:1;fill-rule:nonzero;stroke:none"
                 id="path158" />
            </g>
            <path
               d="m 327.78,247.49 h -4.21 v 0.43 h 4.21 z"
               style="fill:#fafbfc;fill-opacity:1;fill-rule:nonzero;stroke:none"
               id="path162" />
            <path
               d="m 327.78,247.92 h -4.21 v 14.69 h 4.21 z"
               style="fill:#ff9602;fill-opacity:1;fill-rule:nonzero;stroke:none"
               id="path164" />
            <g
               transform="translate(329.1499,242.6001)"
               id="g168">
              <path
                 d="m 0,0 h -6.95 c -0.73,0 -1.4,0.3 -1.88,0.78 -0.48,0.48 -0.78,1.15 -0.78,1.88 0,0.94 0.49,1.76 1.22,2.23 h 2.81 4.21 2.8 C 1.59,4.79 1.74,4.68 1.88,4.54 2.36,4.06 2.66,3.4 2.66,2.66 2.66,1.2 1.46,0 0,0"
                 style="fill:#00607f;fill-opacity:1;fill-rule:nonzero;stroke:none"
                 id="path166" />
            </g>
            <g
               transform="translate(323.5698,247.9199)"
               id="g172">
              <path
                 d="M 0,0 V -0.43 H -2.81 C -2.39,-0.16 -1.9,0 -1.37,0 Z"
                 style="fill:#fafbfc;fill-opacity:1;fill-rule:nonzero;stroke:none"
                 id="path170" />
            </g>
            <g
               transform="translate(323.5698,265.73)"
               id="g176">
              <path
                 d="m 0,0 v -3.12 h -0.4 -2.3 c -1.49,0 -2.7,1.21 -2.7,2.7 V 0 c 0,0.75 0.3,1.42 0.79,1.9 0.49,0.49 1.16,0.79 1.91,0.79 C -1.21,2.69 0,1.49 0,0"
                 style="fill:#ff9602;fill-opacity:1;fill-rule:nonzero;stroke:none"
                 id="path174" />
            </g>
          </g>
        </g>
      </g>
      <g
         id="g182"
         transform="translate(324.5698,285.6299)">
        <path
           d="m 0,0 c -7.16,0 -13.32,-5.08 -14.68,-12.1 -0.18,-0.95 -0.27,-1.9 -0.27,-2.85 0,-2.49 0.62,-4.96 1.83,-7.18 l 8.76,-16.01 h 0.55"
           style="fill:none;stroke:#141414;stroke-width:2;stroke-linecap:round;stroke-linejoin:round;stroke-miterlimit:10;stroke-dasharray:none;stroke-opacity:1"
           id="path184" />
      </g>
      <g
         id="g186"
         transform="translate(328.04,285.6299)">
        <path
           d="M 0,0 H -1.26"
           style="fill:none;stroke:#141414;stroke-width:2;stroke-linecap:round;stroke-linejoin:round;stroke-miterlimit:10;stroke-dasharray:none;stroke-opacity:1"
           id="path188" />
      </g>
      <g
         id="g190"
         transform="translate(323.3101,285.6299)">
        <path
           d="M 0,0 H 1.26"
           style="fill:none;stroke:#141414;stroke-width:2;stroke-linecap:round;stroke-linejoin:round;stroke-miterlimit:10;stroke-dasharray:none;stroke-opacity:1"
           id="path192" />
      </g>
      <g
         id="g194"
         transform="translate(330.5801,247.4902)">
        <path
           d="m 0,0 h 0.56 l 8.76,16.01 c 1.67,3.06 2.22,6.6 1.56,10.03 -0.68,3.51 -2.56,6.53 -5.17,8.68 -2.6,2.15 -5.93,3.42 -9.51,3.42 h -2.21"
           style="fill:none;stroke:#141414;stroke-width:2;stroke-linecap:round;stroke-linejoin:round;stroke-miterlimit:10;stroke-dasharray:none;stroke-opacity:1"
           id="path196" />
      </g>
      <g
         id="g198"
         transform="translate(323.5698,247.9199)">
        <path
           d="m 0,0 v 14.69 3.12 c 0,1.49 -1.21,2.69 -2.7,2.69 -0.75,0 -1.42,-0.3 -1.91,-0.79 -0.49,-0.48 -0.79,-1.15 -0.79,-1.9 v -0.42 c 0,-1.49 1.21,-2.7 2.7,-2.7 h 2.3"
           style="fill:none;stroke:#141414;stroke-width:2;stroke-linecap:round;stroke-linejoin:round;stroke-miterlimit:10;stroke-dasharray:none;stroke-opacity:1"
           id="path200" />
      </g>
      <g
         id="g202"
         transform="translate(327.7798,247.9199)">
        <path
           d="m 0,0 v 14.69 3.12 c 0,1.49 1.21,2.69 2.7,2.69 0.74,0 1.42,-0.3 1.91,-0.79 0.49,-0.48 0.79,-1.15 0.79,-1.9 v -0.42 c 0,-1.49 -1.21,-2.7 -2.7,-2.7 H 0.4 0 -4.21 -4.61"
           style="fill:none;stroke:#141414;stroke-width:2;stroke-linecap:round;stroke-linejoin:round;stroke-miterlimit:10;stroke-dasharray:none;stroke-opacity:1"
           id="path204" />
      </g>
      <g
         id="g206"
         transform="translate(329.1499,242.6001)">
        <path
           d="M 0,0 C 1.46,0 2.66,1.2 2.66,2.66 2.66,3.4 2.36,4.06 1.88,4.54 1.74,4.68 1.59,4.79 1.43,4.89 1.02,5.17 0.53,5.32 0,5.32 H -1.37 -5.58 -6.95 C -7.48,5.32 -7.97,5.16 -8.39,4.89 -9.12,4.42 -9.61,3.6 -9.61,2.66 c 0,-0.73 0.3,-1.4 0.78,-1.88 C -8.35,0.3 -7.68,0 -6.95,0"
           style="fill:none;stroke:#141414;stroke-width:2;stroke-linecap:round;stroke-linejoin:round;stroke-miterlimit:10;stroke-dasharray:none;stroke-opacity:1"
           id="path208" />
      </g>
      <g
         id="g210"
         transform="translate(329.1499,242.6001)">
        <path
           d="m 0,0 h -6.95 c -1.46,0 -2.66,-1.2 -2.66,-2.66 0,-0.73 0.3,-1.4 0.78,-1.88 0.48,-0.48 1.15,-0.78 1.88,-0.78 H 0 c 1.46,0 2.66,1.2 2.66,2.66 0,0.73 -0.3,1.4 -0.78,1.88 C 1.39,-0.3 0.73,0 0,0 Z"
           style="fill:none;stroke:#141414;stroke-width:2;stroke-linecap:round;stroke-linejoin:round;stroke-miterlimit:10;stroke-dasharray:none;stroke-opacity:1"
           id="path212" />
      </g>
    </g>
  </g>
</svg>
