<?xml version="1.0" encoding="UTF-8" standalone="no"?>
<svg
   xmlns:dc="http://purl.org/dc/elements/1.1/"
   xmlns:cc="http://creativecommons.org/ns#"
   xmlns:rdf="http://www.w3.org/1999/02/22-rdf-syntax-ns#"
   xmlns:svg="http://www.w3.org/2000/svg"
   xmlns="http://www.w3.org/2000/svg"
   id="svg5088"
   version="1.1"
   viewBox="0 0 22.489297 24.983577"
   height="24.983578mm"
   width="22.489298mm">
  <defs
     id="defs5082">
    <clipPath
       id="clipPath26"
       clipPathUnits="userSpaceOnUse">
      <path
         id="path24"
         d="m 46.87,357.72 h 57.62 v -61.3 H 46.87 Z" />
    </clipPath>
    <clipPath
       id="clipPath68"
       clipPathUnits="userSpaceOnUse">
      <path
         id="path66"
         d="m 134.76,353.97 h 53.44 v -53.8 h -53.44 z" />
    </clipPath>
    <clipPath
       id="clipPath92"
       clipPathUnits="userSpaceOnUse">
      <path
         id="path90"
         d="m 223.45,354.72 h 47.18 v -55.29 h -47.18 z" />
    </clipPath>
    <clipPath
       id="clipPath340"
       clipPathUnits="userSpaceOnUse">
      <path
         id="path338"
         d="m 297.63,333.83 h 56.08 V 295.5 h -56.08 z" />
    </clipPath>
  </defs>
  <metadata
     id="metadata5085">
    <rdf:RDF>
      <cc:Work
         rdf:about="">
        <dc:format>image/svg+xml</dc:format>
        <dc:type
           rdf:resource="http://purl.org/dc/dcmitype/StillImage" />
        <dc:title></dc:title>
      </cc:Work>
    </rdf:RDF>
  </metadata>
  <g
     transform="translate(-50.518243,-92.59175)"
     id="layer1">
    <g
       id="g6012"
       transform="matrix(0.35277777,0,0,-0.35277777,-53.126262,220.46831)">
      <g
         id="g334">
        <g
           id="g336" />
        <g
           id="g356">
          <g
             clip-path="url(#clipPath340)"
             id="g354">
            <g
               transform="translate(321.8999,299.2598)"
               id="g344">
              <path
                 d="M 0,0 C 0,2.09 1.69,3.77 3.77,3.77 5.86,3.77 7.54,2.09 7.54,0 7.54,-2.08 5.86,-3.76 3.77,-3.76 2.29,-3.76 1,-2.91 0.39,-1.66 0.14,-1.16 0,-0.6 0,0"
                 style="fill:#00607f;fill-opacity:1;fill-rule:nonzero;stroke:none"
                 id="path342" />
            </g>
            <g
               transform="translate(353.71,330.6099)"
               id="g348">
              <path
                 d="m 0,0 v -12.54 c 0,-1.77 -1.44,-3.22 -3.21,-3.22 -1.769,0 -3.22,1.45 -3.22,3.22 V 0 c 0,0.89 0.36,1.69 0.951,2.27 C -4.9,2.86 -4.09,3.22 -3.21,3.22 -1.44,3.22 0,1.77 0,0"
                 style="fill:#ff9602;fill-opacity:1;fill-rule:nonzero;stroke:none"
                 id="path346" />
            </g>
            <g
               transform="translate(304.0698,330.6099)"
               id="g352">
              <path
                 d="m 0,0 v -12.54 c 0,-1.77 -1.45,-3.22 -3.22,-3.22 -1.77,0 -3.22,1.45 -3.22,3.22 V 0 c 0,0.89 0.36,1.69 0.95,2.27 0.58,0.59 1.38,0.95 2.27,0.95 C -1.45,3.22 0,1.77 0,0"
                 style="fill:#ff9602;fill-opacity:1;fill-rule:nonzero;stroke:none"
                 id="path350" />
            </g>
          </g>
        </g>
      </g>
      <g
         id="g358"
         transform="translate(350.5,314.8501)">
        <path
           d="m 0,0 c 1.77,0 3.21,1.45 3.21,3.22 v 12.54 c 0,1.77 -1.44,3.22 -3.21,3.22 -0.88,0 -1.69,-0.36 -2.27,-0.95 -0.59,-0.58 -0.95,-1.38 -0.95,-2.27 V 3.22 C -3.22,1.45 -1.77,0 0,0 Z"
           style="fill:none;stroke:#141414;stroke-width:2;stroke-linecap:round;stroke-linejoin:round;stroke-miterlimit:10;stroke-dasharray:none;stroke-opacity:1"
           id="path360" />
      </g>
      <g
         id="g362"
         transform="translate(300.8501,314.8501)">
        <path
           d="m 0,0 c 1.77,0 3.22,1.45 3.22,3.22 v 12.54 c 0,1.77 -1.45,3.22 -3.22,3.22 -0.89,0 -1.69,-0.36 -2.27,-0.95 -0.59,-0.58 -0.95,-1.38 -0.95,-2.27 V 3.22 C -3.22,1.45 -1.77,0 0,0 Z"
           style="fill:none;stroke:#141414;stroke-width:2;stroke-linecap:round;stroke-linejoin:round;stroke-miterlimit:10;stroke-dasharray:none;stroke-opacity:1"
           id="path364" />
      </g>
      <g
         id="g366"
         transform="translate(350.5,333.8301)">
        <path
           d="M 0,0 C 0,13.71 -11.12,24.82 -24.83,24.82 -38.53,24.82 -49.65,13.71 -49.65,0"
           style="fill:none;stroke:#141414;stroke-width:2;stroke-linecap:round;stroke-linejoin:round;stroke-miterlimit:10;stroke-dasharray:none;stroke-opacity:1"
           id="path368" />
      </g>
      <g
         id="g370"
         transform="translate(302.8901,314.8501)">
        <path
           d="m 0,0 3.07,-8.21 c 2.5,-6.67 9.47,-10.44 16.33,-9.04"
           style="fill:none;stroke:#141414;stroke-width:2;stroke-linecap:round;stroke-linejoin:round;stroke-miterlimit:10;stroke-dasharray:none;stroke-opacity:1"
           id="path372" />
      </g>
      <g
         id="g374"
         transform="translate(321.8999,299.2598)">
        <path
           d="m 0,0 c 0,-0.6 0.14,-1.16 0.39,-1.66 0.61,-1.25 1.9,-2.1 3.38,-2.1 2.09,0 3.77,1.68 3.77,3.76 0,2.09 -1.68,3.77 -3.77,3.77 C 1.69,3.77 0,2.09 0,0 Z"
           style="fill:none;stroke:#141414;stroke-width:2;stroke-linecap:round;stroke-linejoin:round;stroke-miterlimit:10;stroke-dasharray:none;stroke-opacity:1"
           id="path376" />
      </g>
    </g>
  </g>
</svg>
