<svg id="Capa_1" enable-background="new 0 0 512 512" height="512" viewBox="0 0 512 512" width="512" xmlns="http://www.w3.org/2000/svg"><g><path d="m195.474 351.442-34.812-8.888-19.21-30.362c-1.833-2.897-5.023-4.653-8.451-4.653s-6.618 1.756-8.451 4.653l-19.21 30.362-34.812 8.888c-3.322.848-5.978 3.339-7.037 6.599-1.059 3.261-.375 6.836 1.814 9.475l22.939 27.653-2.305 35.855c-.22 3.421 1.328 6.717 4.102 8.732 2.773 2.015 6.386 2.469 9.572 1.203l33.387-13.272 33.388 13.272c1.193.474 2.446.707 3.693.707 2.081 0 4.144-.649 5.879-1.91 2.773-2.015 4.321-5.31 4.101-8.732l-2.305-35.855 22.94-27.653c2.189-2.639 2.873-6.214 1.814-9.475-1.059-3.26-3.715-5.751-7.036-6.599zm-35.648 34.018c-1.63 1.965-2.447 4.478-2.283 7.026l1.546 24.049-22.395-8.902c-1.186-.471-2.44-.707-3.694-.707s-2.508.236-3.694.707l-22.395 8.902 1.546-24.049c.164-2.548-.653-5.062-2.283-7.026l-15.386-18.548 23.35-5.961c2.474-.632 4.612-2.186 5.977-4.343l12.885-20.366 12.885 20.365c1.365 2.157 3.503 3.711 5.977 4.343l23.35 5.961z"/><path d="m502 246h-113v-236c0-5.523-4.477-10-10-10h-78c-5.523 0-10 4.477-10 10s4.477 10 10 10h68v226h-226v-226h68c5.523 0 10-4.477 10-10s-4.477-10-10-10h-78c-5.523 0-10 4.477-10 10v236h-113c-5.523 0-10 4.477-10 10v246c0 5.523 4.477 10 10 10h246 246c5.523 0 10-4.477 10-10v-246c0-5.523-4.477-10-10-10zm-482 246v-226h226v226zm472 0h-226v-226h226z"/><path d="m309 379c0 38.598 31.402 70 70 70s70-31.402 70-70-31.402-70-70-70-70 31.402-70 70zm120 0c0 27.57-22.43 50-50 50s-50-22.43-50-50 22.43-50 50-50 50 22.43 50 50z"/><circle cx="256" cy="10" r="10"/><path d="m256 60.039c-3.573 0-6.874 1.906-8.66 5l-60 103.923c-1.787 3.094-1.787 6.906 0 10 1.786 3.094 5.087 5 8.66 5h120c3.573 0 6.874-1.906 8.66-5 1.787-3.094 1.787-6.906 0-10l-60-103.923c-1.786-3.095-5.087-5-8.66-5zm42.68 103.922h-85.36l42.68-73.922z"/></g></svg>