<svg xmlns="http://www.w3.org/2000/svg" viewBox="0 0 81 81"><defs><style>.cls-1{fill:#fff;}</style></defs><title>logo</title><g id="Слой_2" data-name="Слой 2"><rect width="81" height="81" rx="12.38"/></g><g id="Слой_1" data-name="Слой 1"><path class="cls-1" d="M21.26,31.09a2.21,2.21,0,0,0,1.5,3.2l13.4,2.76a13.55,13.55,0,0,0-2.95,14.2,2.21,2.21,0,0,0,3.27,1L48.75,44.2A128.47,128.47,0,0,0,43.6,60.05a178.12,178.12,0,0,0-4.35,23H32.64a2.24,2.24,0,0,0-2.25,2,2.2,2.2,0,0,0,2.19,2.46H59a2.24,2.24,0,0,0,2.25-1.95A2.21,2.21,0,0,0,59.1,83H52.46a140.69,140.69,0,0,1,2.46-39.56l9.61,14.57a2.21,2.21,0,0,0,3.41.35,13.52,13.52,0,0,0,2.89-14.21L84.23,47a2.22,2.22,0,0,0,2.65-2.35c-.51-6.27-7-12.1-15.56-13.85-.72-.15-1.45-.26-2.17-.34l8-6.64a2.19,2.19,0,0,0,.8-1.75,2.23,2.23,0,0,0-.88-1.71c-5.14-3.9-12.87-3-18.18,1.4a17.09,17.09,0,0,0-1.79,1.71A16.87,16.87,0,0,0,56,20.84c-3.14-6.16-9.86-10-16.09-8.48a2.17,2.17,0,0,0-1.1.6,2.22,2.22,0,0,0-.42,2.55l4.79,9.56A21.9,21.9,0,0,0,41,24.52c-8.5-1.75-16.81,1-19.76,6.57Zm18.87-2.26c5.37,1.1,9.23,4,10.94,6.76L27.41,30.72C30.08,28.86,34.77,27.72,40.13,28.83Zm1.72,9.37,6,1.25L36.75,46.79A9.52,9.52,0,0,1,41.85,38.2ZM43.7,83A173.89,173.89,0,0,1,48.06,60.5,139.06,139.06,0,0,0,48,83ZM66.44,52.91,59.09,41.75l6,1.25A9.5,9.5,0,0,1,66.44,52.91ZM81.37,41.83,57.71,37c2.67-1.86,7.37-3,12.72-1.9S79.66,39.07,81.37,41.83ZM61.7,25.09a11.57,11.57,0,0,1,10-2.56L62,30.61A19.11,19.11,0,0,0,57.54,32c.05-.25.1-.5.14-.75a12.26,12.26,0,0,1,4-6.16ZM43.89,16.53a11.57,11.57,0,0,1,8.2,6.3,12.79,12.79,0,0,1,1.27,7.45c-.07.27-.13.54-.19.81a19.09,19.09,0,0,0-3.5-3Z" transform="translate(-10 -9)"/></g></svg>