<svg width="54" height="54" viewBox="0 0 54 54" fill="none" xmlns="http://www.w3.org/2000/svg">
<g clip-path="url(#clip0)">
<path d="M39.5521 29.294C37.9044 29.6255 36.233 29.6844 34.5944 29.4687C33.7898 29.3548 32.9153 29.7838 32.5548 30.3631L30.0042 33.3351C26.105 32.1032 23.4935 30.3026 20.9209 27.0713L22.5246 23.5764C22.9809 22.8654 23.0126 21.9546 22.601 21.1887C21.7714 19.6968 21.1764 18.076 20.8333 16.3708C20.5856 15.1389 19.4152 14.3316 18.2244 14.5712L13.2821 15.5655C12.0913 15.8051 11.3242 17.0022 11.572 18.234C14.4127 32.3536 27.8278 41.6064 41.4768 38.8604C42.6675 38.6208 43.4347 37.4237 43.1868 36.1919L42.1611 31.0934C41.9132 29.8617 40.7428 29.0544 39.5521 29.294Z" fill="black"/>
</g>
<circle cx="27.3789" cy="27.2129" r="23.9302" stroke="black" stroke-width="5"/>
<defs>
<clipPath id="clip0">
<rect width="27.4517" height="28.3983" fill="white" transform="translate(11.1226 16) rotate(-11.3755)"/>
</clipPath>
</defs>
</svg>
