<svg width="14" height="19" viewBox="0 0 14 19" fill="none" xmlns="http://www.w3.org/2000/svg">
<path d="M8.09961 14.7217H4.24023V19H2.80566V14.7217H0.62207V13.3633H2.80566V11.4844H0.62207V10.126H2.80566V0.515625H8.17578C9.81771 0.515625 11.1042 1.01074 12.0352 2.00098C12.9661 2.99121 13.4316 4.32845 13.4316 6.0127C13.4316 7.76465 12.9746 9.11458 12.0605 10.0625C11.1465 11.0104 9.83887 11.4844 8.1377 11.4844H4.24023V13.3633H8.09961V14.7217ZM4.24023 10.126H8.17578C9.39453 10.126 10.3298 9.77051 10.9814 9.05957C11.6416 8.34017 11.9717 7.33301 11.9717 6.03809C11.9717 4.78548 11.6416 3.78678 10.9814 3.04199C10.3298 2.28874 9.42415 1.90365 8.26465 1.88672H4.24023V10.126Z" fill="black"/>
</svg>
