<svg width="54" height="53" viewBox="0 0 54 53" fill="none" xmlns="http://www.w3.org/2000/svg">
<g clip-path="url(#clip0)">
<path d="M38.9026 31.5946L38.8827 31.7602C34.0266 29.3398 33.5186 29.0174 32.8915 29.9582C32.4564 30.6096 31.1889 32.087 30.8068 32.5243C30.4204 32.9549 30.0361 32.988 29.3802 32.6899C28.7177 32.3586 26.5911 31.663 24.0736 29.4105C22.1126 27.6549 20.7964 25.5018 20.4078 24.8393C19.7607 23.7218 21.1144 23.5628 22.3467 21.2308C22.5675 20.7671 22.4549 20.4027 22.2915 20.0737C22.1259 19.7424 20.8075 16.4962 20.2554 15.2021C19.7254 13.9124 19.1799 14.0758 18.7714 14.0758C17.4994 13.9654 16.5697 13.9831 15.7504 14.8355C12.1861 18.7531 13.0849 22.7943 16.1346 27.0918C22.1281 34.9358 25.3213 36.38 31.1601 38.3852C32.7369 38.8865 34.1745 38.8158 35.3118 38.6524C36.5794 38.4514 39.2139 37.0602 39.7638 35.5033C40.3269 33.9464 40.3269 32.6546 40.1613 32.3564C39.9979 32.0583 39.5651 31.8927 38.9026 31.5946Z" fill="black"/>
<path d="M45.5562 7.61579C28.5763 -8.79875 0.475294 3.10637 0.464253 26.263C0.464253 30.8916 1.67663 35.4055 3.98654 39.3915L0.241211 52.9993L14.231 49.3511C31.6879 58.7807 53.2324 46.2594 53.2412 26.2762C53.2412 19.2625 50.5029 12.6618 45.5231 7.70191L45.5562 7.61579ZM48.829 26.2033C48.8157 43.0595 30.3121 53.5867 15.6775 44.983L14.8825 44.5104L6.60121 46.6635L8.82059 38.6142L8.29279 37.786C-0.814373 23.2883 9.64871 4.34083 26.9002 4.34083C32.7611 4.34083 38.2621 6.62645 42.4049 10.7671C46.5455 14.8724 48.829 20.3733 48.829 26.2033Z" fill="black"/>
</g>
<defs>
<clipPath id="clip0">
<rect width="53" height="53" fill="white" transform="translate(0.241211)"/>
</clipPath>
</defs>
</svg>
