<?xml version="1.0"?>
<svg xmlns="http://www.w3.org/2000/svg" id="Layer_1" data-name="Layer 1" viewBox="0 0 128 128" width="512" height="512"><title>DEADLINE</title><path d="M64,93.989a30,30,0,0,0,19.416-7.133,1.25,1.25,0,0,0-1.619-1.9,27.489,27.489,0,1,1,3.6-3.692,1.25,1.25,0,0,0,1.945,1.571A29.991,29.991,0,1,0,64,93.989Z"/><path d="M64,24.75a39.018,39.018,0,0,0-15.159,3.035,1.25,1.25,0,1,0,.967,2.306,36.8,36.8,0,1,1-8.831,5.264,1.25,1.25,0,0,0-1.568-1.947A39.252,39.252,0,1,0,64,24.75Z"/><path d="M44.644,32.543a1.241,1.241,0,0,0,.635-.174l.457-.266a1.25,1.25,0,0,0-1.246-2.168l-.482.282a1.25,1.25,0,0,0,.637,2.326Z"/><path d="M64,44.36a1.25,1.25,0,0,0-1.25,1.25V64a1.25,1.25,0,0,0,.443.955l8.529,7.2a1.25,1.25,0,1,0,1.613-1.91L65.25,63.419V45.61A1.25,1.25,0,0,0,64,44.36Z"/></svg>
