<svg xmlns="http://www.w3.org/2000/svg" viewBox="0 0 43.79 43.79"><defs><style>.cls-1,.cls-3{fill:#201600;}.cls-2,.cls-6{fill:#fff;}.cls-2,.cls-4,.cls-5{stroke:#fff;}.cls-2,.cls-3,.cls-4,.cls-5{stroke-miterlimit:10;}.cls-3{stroke:#201600;}.cls-4,.cls-5{fill:none;}.cls-5{stroke-width:3px;}</style></defs><title>palace</title><g id="Слой_4" data-name="Слой 4"><rect class="cls-1" width="43.79" height="43.79" rx="1.92"/></g><g id="Слой_3" data-name="Слой 3"><polygon class="cls-2" points="7.49 1.6 2.87 11.1 40.92 11.1 36.25 1.6 7.49 1.6"/><polygon class="cls-3" points="16.93 2.92 15.57 10.11 28.27 10.11 26.75 2.92 16.93 2.92"/><polyline class="cls-4" points="6.54 11.1 6.54 40.75 37.56 40.75 37.56 11.1"/><line class="cls-4" x1="2.5" y1="21.35" x2="6.54" y2="21.35"/><line class="cls-5" x1="2.87" y1="25.93" x2="41.23" y2="25.93"/><polyline class="cls-4" points="41.76 21.35 37.56 21.35 5.75 21.35"/><line class="cls-4" x1="4.52" y1="21.35" x2="4.52" y2="25.93"/><line class="cls-4" x1="8.42" y1="21.35" x2="8.42" y2="25.93"/><line class="cls-4" x1="12.2" y1="21.35" x2="12.2" y2="25.93"/><line class="cls-4" x1="16.14" y1="21.35" x2="16.14" y2="25.93"/><line class="cls-4" x1="20.04" y1="21.35" x2="20.04" y2="25.93"/><line class="cls-4" x1="23.91" y1="21.35" x2="23.91" y2="25.93"/><line class="cls-4" x1="27.83" y1="21.35" x2="27.83" y2="25.93"/><line class="cls-4" x1="31.78" y1="21.35" x2="31.78" y2="25.93"/><line class="cls-4" x1="35.68" y1="21.35" x2="35.68" y2="25.93"/><line class="cls-4" x1="39.56" y1="21.35" x2="39.56" y2="25.93"/><line class="cls-4" x1="2.89" y1="40.75" x2="6.54" y2="40.75"/><line class="cls-4" x1="41.68" y1="40.75" x2="37.56" y2="40.75"/><path class="cls-6" d="M21.88,29.13h.48a4,4,0,0,1,4,4v7.62a0,0,0,0,1,0,0H17.88a0,0,0,0,1,0,0V33.13A4,4,0,0,1,21.88,29.13Z"/><path class="cls-6" d="M12.4,12.58h1a3,3,0,0,1,3,3v4.29a0,0,0,0,1,0,0h-7a0,0,0,0,1,0,0V15.58A3,3,0,0,1,12.4,12.58Z"/><path class="cls-6" d="M21.62,12.52h1a3,3,0,0,1,3,3v4.29a0,0,0,0,1,0,0h-7a0,0,0,0,1,0,0V15.52A3,3,0,0,1,21.62,12.52Z"/><path class="cls-6" d="M30.76,12.52h1a3,3,0,0,1,3,3v4.29a0,0,0,0,1,0,0h-7a0,0,0,0,1,0,0V15.52A3,3,0,0,1,30.76,12.52Z"/><path class="cls-6" d="M30.76,29.13h1a3,3,0,0,1,3,3v4.29a0,0,0,0,1,0,0h-7a0,0,0,0,1,0,0V32.13A3,3,0,0,1,30.76,29.13Z"/><path class="cls-6" d="M12.4,29.13h1a3,3,0,0,1,3,3v4.29a0,0,0,0,1,0,0h-7a0,0,0,0,1,0,0V32.13A3,3,0,0,1,12.4,29.13Z"/></g></svg>